<?xml version="1.0" encoding="UTF-8"?>
<svg id="_レイヤー_2" data-name="レイヤー 2" xmlns="http://www.w3.org/2000/svg" viewBox="0 -10 150 67.47999999999999">
  <defs>
    <style>
      .cls-1 {
        fill: #fff;
      }

      .cls-2 {
        fill: #e50012;
      }
    </style>
  </defs>
  <g id="_レイヤー_1-2" data-name="レイヤー 1">
    <g>
      <path class="cls-2" d="M138.64,9.49C117.48,3.09,96.78-.2,75,0h0s0,0,0,0c0,0,0,0,0,0h0C53.22-.2,32.52,3.09,11.36,9.49c-14.84,4.49-15.45,22.73,0,27.81,21.15,6.95,41.86,10.43,63.64,10.17,21.77.26,42.49-3.21,63.64-10.17,15.45-5.08,14.84-23.32,0-27.81Z"/>
      <g>
        <path class="cls-1" d="M32.34,14.89l-.03-2.39c-.02-2.44,4.85-2.66,4.89-.05,0,.78.03,2.32.03,2.32l8.21-.08c1.88.14,2.87,2.27,2.85,4.01-.33,13.6-8.66,17.19-15.34,18.24-3.87.6-4.84-4.61-1.41-5.21,8.32-1.45,11.07-5.2,11.04-11.44,0-.05-.11-.42-.17-.42l-16.58.22-.11.17c0,1.08.06,4.78.06,4.78.03,2.83-5.07,2.88-5.09.06-.04-2.75-.09-5.64-.09-7.94,0-1.24.86-2.13,2.28-2.15l9.46-.12Z"/>
        <path class="cls-1" d="M52.09,35.79c-3.75.05-3.48-5.07-.06-5.22l9.24-.09-.12-11.63s-6.09.07-8.43.08c-3.31.04-3.16-5.23-.17-5.26,2.24-.03,19.4-.21,21.85-.23,3.48-.04,3.74,5.23.12,5.27-2.17.02-7.39.08-7.39.08l.11,11.62,8.1-.09c3.96-.04,4.09,5.29.05,5.22l-23.31.24Z"/>
        <path class="cls-1" d="M98.2,30.2c-3.59,3.29-8.42,5.21-13.85,5.26-3.31.04-4.05-5.11-.21-5.37,7.18-.5,13.75-5.89,14.2-11.19l-.24-.27s-11.89.23-14.83.15c-2.95-.07-3.32-5.22-.05-5.25l18.04-.19c2.19-.1,3.23.82,3.25,3.1.02,1.74-.1,1.52-.1,1.52-.37,2.85-1.27,5.46-2.58,7.72,3.25,1.48,5.09,3.01,6.35,4.84,2.02,2.96-2.19,5.7-4.02,3.72,0,0-4.51-4.25-5.95-4.06Z"/>
        <path class="cls-1" d="M134.88,23.48c-5.18-2.92-10.31-4.28-17.42-4.26-.03-2.57-.05-4.75-.05-5.88-.04-3.81-5.1-3.75-5.06.05,0,0,.18,17.91.2,20.37.04,2.88,5.1,3.06,5.07-.21-.02-1.45-.05-4.93-.1-8.65,4.25-.54,13.07,2.33,14.75,3.26,3.37,1.87,5.5-3.05,2.61-4.69Z"/>
      </g>
    </g>
  </g>
</svg>